<svg transform="scale(2)" version="1.1" id="f3sbg6hYa1" xmlns="http://www.w3.org/2000/svg" xmlns:xlink="http://www.w3.org/1999/xlink" x="0px" y="0px" viewBox="0 0 500 500" xml:space="preserve" class="pbimage_pbimage__wrapper__image__0LEis false"><title>Coding 1</title><style type="text/css"> .st0{fill:#000005;} .st1{fill:#FFFFFF;} .st2{fill:#59BE4C;}
 .st2{fill:#00b8db;}
 .st1{fill:#FFFFFF;}
 .st0{fill:#000005;}</style><g id="coffee"><path class="st0" d="M430,387.8C429,388.1,429.6,387.9,430,387.8c0.2,0,0.3,0-0.1,0h1c0.1,0,0.5,0.1-0.2,0l0.5,0.1
		c0.1,0,1,0.2,0.5,0.1c0.8,0.2,1.5,0.5,2.2,1c3.3,2.1,5.5,6.1,6.2,9.9c0.6,3.7,0.5,7.5-0.3,11.1c-0.6,3.4-2.1,6.6-4.4,9.2
		c-0.5,0.6-1.1,1-1.7,1.5c-0.2,0.1-0.4,0.2-0.5,0.3s-0.6,0.3-0.5,0.2s-1.2,0.4-0.7,0.2l-0.4,0.1c-0.1,0-1,0.1-0.4,0.1h-0.5
		c-0.6,0,0.1,0-0.4,0c-1-0.1-1.9-0.4-2.8-0.9c-1.1-0.5-2.5-0.3-3.4,0.5c-0.8,0.9,0,1.7,0.9,2c4,1.8,9,2,12.8-0.6
		c3.4-2.4,5.4-6.2,6.6-10.1c2.5-8.6,1.8-19.5-6.1-25.1c-3-2.1-6.8-2.9-10.5-2.1c-0.9,0.2-1.6,1.2-0.9,2S429,388.1,430,387.8
		L430,387.8z" fill="#000005"></path><path class="st0" d="M429.9,379.7c0,0,5.1,40.5-7.6,50.5c0,0-13.2,3.2-20.2,0.2s-12.4-24.4-10-50.2
		C392.1,380.2,419.4,373.3,429.9,379.7z" fill="#000005"></path><path class="st0" d="M428.5,377.8c0.9,7.1,1.2,14.3,1,21.5c0,5.7-0.7,11.4-2,16.9c-0.6,2.4-1.5,4.8-2.6,7.1c-0.5,1-1.1,1.9-1.8,2.8
		c-0.5,0.8-1.2,1.5-2.1,2.1c-0.5,0.2-1,0.3-1.5,0.3c-1.2,0.2-2.4,0.4-3.6,0.6c-3.3,0.5-6.6,0.7-9.9,0.4c-2.4-0.2-5.1-0.7-6.9-2.3
		c0.1,0.1-0.1-0.2-0.2-0.2c-0.2-0.2,0.2,0.2,0,0s0.1,0.1,0.1,0.1c-0.3-0.4,0,0,0,0.1c-0.3-0.2-0.1-0.1,0,0c-0.2-0.4-0.1-0.1,0,0
		c-0.2-0.3-0.2-0.4-0.4-0.6c-0.6-1.2-1.1-2.4-1.6-3.7c-2.6-7.1-3.5-14.9-3.8-22.4c-0.2-4.8-0.2-9.6,0.2-14.4c0-0.6,0.1-1.3,0.1-1.9
		c0-0.5,0-1.1,0.1-1.6c0.2-0.3,0-0.1,0.2-0.2c0.5-0.2,0.9-0.3,1.4-0.3c4.8-1.1,9.6-1.9,14.5-2.4c5.9-0.6,12.4-1,18.1,0.8
		c1.2,0.3,2.3,0.8,3.4,1.5c0.4,0.2-0.6-1.6-0.7-1.7c-0.5-0.9-1.1-1.7-2-2.4c-5-3-11.6-2.9-17.2-2.6c-5.8,0.3-11.5,1.1-17.2,2.3
		c-1.2,0.2-2.4,0.5-3.6,0.8v0.1c-1.2,13.1-1,27,3,39.7c1.4,4.5,3.7,8.7,6.8,12.3c2.9,3.1,7.2,3.5,11.3,3.5c2.6,0,5.1-0.3,7.6-0.7
		c1.4-0.1,2.8-0.4,4.2-0.8c1.1-0.5,2.1-1.9,2.8-2.9c1-1.5,1.9-3.2,2.5-4.9c3.1-8,3.5-17,3.4-25.5c0-5.8-0.3-11.6-1-17.4
		c-0.3-1-0.9-1.9-1.6-2.7C429.7,378.8,428.4,377.4,428.5,377.8z" fill="#000005"></path><path class="st1" d="M427.4,379c-8.1,2.1-16.4,3-24.8,2.5c-1.4-0.1-2.9-0.3-4.3-0.6c-1.2-0.2-2.4-0.6-3.5-1.1
		c-1-0.4-2.5-0.9-3.4-0.2s-0.2,1.5,0.5,1.9c5.9,2.6,12.5,3,18.9,2.7c5.5-0.3,11-1,16.4-2.1c1.1-0.2,2.2-0.5,3.4-0.7s1.1-1.1,0.3-1.7
		C429.9,379,428.6,378.7,427.4,379L427.4,379z" fill="#FFFFFF"></path><path class="st0" d="M410.9,367.4c0.1-3-1.8-5.2-4.2-6.8c-2.3-1.5-4.9-2.4-5.7-5.3s0.8-5.7,0.5-8.6c-0.3-2.8-1.7-5.4-3.9-7.2
		c-1-0.8-2.4-0.8-3.5-0.1c-0.9,0.5-1.5,1.9-0.5,2.6c1.9,1.5,3,3.9,3,6.3c-0.1,2.8-1.3,5.3-0.4,8.2c0.8,2.5,2.6,4.6,5,5.9
		c1.7,1,4.9,2.3,4.8,4.8c0,1.1,0.8,2,1.9,2c0.1,0,0.1,0,0.2,0C408.9,369.2,410.8,368.6,410.9,367.4L410.9,367.4z" fill="#000005"></path><path class="st0" d="M395.3,365.5c-1.5-1.6-2.7-3.5-3.5-5.6c-0.8-2-0.6-4.2,0.4-6.1c0.1-0.2-0.2-0.6-0.3-0.7
		c-0.4-0.5-0.8-0.9-1.2-1.3c-0.2-0.1-2-1.7-2.2-1.3c-2.7,4.6,1,9.7,3.8,13.2c0.7,0.9,1.6,1.7,2.6,2.3c0.1,0.1,0.6,0.4,0.8,0.2
		S395.4,365.6,395.3,365.5L395.3,365.5z" fill="#000005"></path></g><g id="pencil-case"><g id="case"><path class="st0" d="M105.9,341.3c-7.8-6.2-12.2,8-12.2,8c-1.4-11.2-14.2-16.8-14.2-4.4s11.4,17.6,11.4,17.6
			c-5.6,3.6-4.8,23-4.8,23l3.3-0.4c0,0-2.1-10.4,0-16s4.4-5.6,4.4-5.6c2.7,5.6,2.7,19,2.7,19s-1.8,7.8,1.2,1.4s-3-21.4-3-21.4
			C98.5,362.5,113.7,347.5,105.9,341.3z M85.9,344.5c4-0.6,6,15.2,6,15.2C86.1,358.3,81.9,345.1,85.9,344.5z M94.9,359.7
			c-1.2-6.9,5.6-16.6,8-13S94.9,359.7,94.9,359.7L94.9,359.7z"></path><polygon class="st2" points="104.4,380.4 108.1,365.4 104.4,363.5 99,380.4 		"></polygon><path class="st2" d="M104.8,380.9h-6.4l5.7-18.1l4.6,2.3L104.8,380.9z M99.7,379.9h4.3l3.6-14.3l-2.8-1.4L99.7,379.9z"></path><polygon class="st1" points="108.1,359 104.4,363.5 108.1,365.4 		"></polygon><path class="st0" d="M108.1,365.9c-0.1,0-0.2,0-0.2-0.1l-3.7-1.8c-0.1-0.1-0.2-0.2-0.3-0.4c0-0.1,0-0.3,0.1-0.4l3.7-4.5
			c0.1-0.2,0.4-0.2,0.6-0.1c0.2,0.1,0.3,0.3,0.3,0.5v6.4C108.6,365.7,108.4,365.9,108.1,365.9L108.1,365.9z M105.1,363.3l2.4,1.2
			v-4.2L105.1,363.3z"></path><path class="st0" d="M106.7,360.6l1.4,0.6c0,0,0.7-2.8,0-2.5S106.7,360.6,106.7,360.6z"></path><path class="st0" d="M108.1,361.8c-0.1,0-0.1,0-0.2,0l-1.3-0.6c-0.2-0.1-0.4-0.4-0.3-0.6c0.1-0.3,0.7-1.8,1.6-2.1
			c0.2-0.1,0.5-0.1,0.7,0.1c0.2,0.1,0.6,0.5-0.1,3c0,0.1-0.1,0.3-0.3,0.3C108.2,361.8,108.2,361.8,108.1,361.8z M107.4,360.4
			l0.3,0.2c0.1-0.3,0.1-0.7,0.2-1C107.7,359.8,107.5,360.1,107.4,360.4z"></path><path class="st2" d="M76,380.4c0,0-7.5-28.6-7.5-29.9s6.8-2.6,6.8-2.6l9.1,32.6L76,380.4z"></path><path class="st2" d="M85,380.9h-9.4l-0.1-0.4c-0.8-2.9-7.5-28.7-7.5-30.1c0-1.5,4.5-2.6,7.2-3.1l0.4-0.1L85,380.9z M76.4,379.9
			h7.3l-8.8-31.5c-3,0.6-5.7,1.6-5.9,2.1C69,351.5,73.4,368.5,76.4,379.9L76.4,379.9z"></path><rect class="st1" x="75.9" y="348" transform="matrix(0.9588 -0.2842 0.2842 0.9588 -100.4488 36.7471)" width="1" height="33.1"></rect><path class="st0" d="M80.6,381c-0.1,0-0.2,0-0.2-0.1c-0.1-0.1-0.2-0.2-0.2-0.3L70.8,349c-0.1-0.3,0.1-0.5,0.3-0.6l1-0.3
			c0.1-0.1,0.3-0.1,0.4,0c0.1,0.1,0.2,0.2,0.2,0.3l9.4,31.7c0.1,0.3-0.1,0.5-0.3,0.6l-1,0.3C80.7,381,80.7,381,80.6,381z
			 M71.9,349.1l9.1,30.8L71.9,349.1z"></path></g><rect class="st0" x="70.8" y="379.7" width="36.8" height="52.1"></rect><path class="st0" d="M107.7,432.3H70.8c-0.3,0-0.5-0.2-0.5-0.5v-52.1c0-0.3,0.2-0.5,0.5-0.5h36.8c0.3,0,0.5,0.2,0.5,0.5v52.1
		C108.2,432.1,108,432.3,107.7,432.3z M71.4,431.3h35.8v-51.1H71.3L71.4,431.3z"></path></g><g id="character"><path class="st1" d="M156.8,430c0,0-42-32.3-27.8-65.2s68.3-68.6,106.9-74.8s124.5,53.8,120,91.8s-35.2,49.9-35.2,49.9l-30-34.6
		l-84.5,1.7l-25.5,32.9C180.7,431.7,168.7,436.2,156.8,430z"></path><path class="st0" d="M158.6,428.7c-0.6-0.5-1.2-1-1.8-1.5c-0.2-0.2,0.3,0.3,0,0l-0.5-0.4c-0.4-0.3-0.7-0.6-1.1-1
		c-0.9-0.8-1.7-1.6-2.6-2.4c-4.7-4.4-9-9.3-12.8-14.5c-4.5-6.1-7.9-13-10-20.3c-2.1-7.7-1.6-15.9,1.4-23.3c3.1-7.4,7.8-14,13-20
		c6.1-7,12.8-13.4,20.1-19.1c15.1-12.1,32-21.8,50.1-28.7c7.6-3,15.5-5.2,23.6-6.3H238l0.5,0l0.9-0.1c0.7,0,1.4-0.1,2.1-0.1
		c1.4,0,2.7,0,4.1,0.1c-0.6,0,0.5,0,0.6,0.1l1,0.1c0.8,0.1,1.6,0.2,2.3,0.3c1.5,0.2,3,0.5,4.5,0.8c6.5,1.5,12.9,3.6,19.1,6.3
		c7,3,13.8,6.4,20.3,10.3c13.5,7.9,26,17.5,37.1,28.5c9,9.1,17.9,19.7,21.7,32.1c0.7,2.4,1.2,4.8,1.4,7.3c0.1,3.4-0.2,6.7-1,10
		c-1.6,8.2-4.8,16-9.5,23c-3.6,5.2-7.9,9.8-12.9,13.6c-1.8,1.4-3.7,2.7-5.6,3.8l-1.2,0.7l-0.5,0.3l-0.2,0.1
		c-0.6,0.3-1.1,0.6-1.7,0.9s-0.9,0.4-1.4,0.6l3.4,0.6l-9.3-10.7l-15.7-18.1l-4.6-5.3c-0.6-0.9-1.6-1.4-2.7-1.4c-0.2,0-0.4,0-0.6,0
		l-12.6,0.2l-22.7,0.5l-24.7,0.5l-18.7,0.4l-4.4,0.1c-0.3,0-0.6,0-0.9,0c-1,0.1-1.9,0.7-2.4,1.5l-12,15.4l-12.2,15.9l-0.7,0.9
		l0.9-0.6l-0.5,0.2c-0.3,0.1-0.6,0.2-0.1,0l-0.9,0.2c-1.5,0.4-3.1,0.7-4.6,0.8C168.3,431.9,163.2,431,158.6,428.7
		c-1.1-0.7-2.4-0.7-3.5,0c-0.7,0.4-0.9,1.2-0.5,1.8c0.1,0.2,0.3,0.4,0.5,0.5c7.5,3.8,16.2,4.8,24.4,2.7c1.2-0.3,2.6-0.5,3.4-1.5
		c0.7-0.8,1.3-1.7,1.9-2.5l18-23.2l5.4-6.9l-2.1,0.9l28.7-0.6l45.4-0.9l10.3-0.2l-2.2-0.8l10.1,11.6l16.2,18.7l3.7,4.3
		c0.9,0.8,2.3,1.1,3.4,0.6c2.2-0.9,4.2-2,6.2-3.2c4.7-2.9,9-6.3,12.8-10.3c5.3-5.5,9.5-12,12.5-19c1.8-4.2,3.1-8.7,4-13.2
		c0.8-3.5,1.1-7,1-10.5c-0.8-12.4-8.6-23.8-16.4-33c-10.2-12.1-22.7-22.4-35.8-31.1c-12.9-8.6-26.9-16.1-41.7-20.9
		c-6.3-2.1-12.9-3.5-19.6-4c-6.8-0.5-13.4,0.9-19.9,2.6c-18.9,5.1-36.7,14.2-52.8,25.1c-8.3,5.6-16,11.9-23.3,18.8
		c-6.5,6-12.2,12.8-17.1,20.2c-4.5,7-7.9,14.6-8.2,23c-0.3,8.1,2.2,16.1,5.8,23.2c5.8,11.1,14.4,20.9,23.9,29
		c0.6,0.5,1.1,0.9,1.7,1.4C156.8,432.5,161,430.6,158.6,428.7z"></path><path class="st1" d="M179,408.1c0,0,16.2-22.1,25.4-20.5s16.7,42.1,12.9,43.1s-45.8,6.5-46.4,1.1S170.9,422.7,179,408.1z"></path><path class="st0" d="M180.6,410.1c2.3-3.1,4.8-6.1,7.5-9c2.2-2.4,4.5-4.6,7-6.7c2.2-1.9,4.6-3.4,7.4-4.4c1.1-0.4,2.2-0.5,3.3-0.3
		c0.3,0,0.5,0.1,0.8,0.3c0.3,0.2-0.2-0.1,0.2,0.1s-0.2,0,0.2,0.2c0.2,0.1-0.2-0.3,0.1,0.1s-0.3-0.4-0.1-0.1l0.3,0.3
		c0.3,0.3-0.3-0.4,0.1,0.1c0.1,0.1,0.6,0.8,0.3,0.4c0.6,0.9,1.1,1.9,1.6,2.9c2.5,5.4,4.3,11.1,5.4,17c1.1,4.9,2.1,10.1,1.9,15.1
		c0,1,0,2.4-0.8,2.9c-0.4,0.1-0.7,0.2-1.1,0.3c-0.8,0.1-1.5,0.3-2.3,0.4c-5.2,0.8-10.5,1.4-15.8,1.9c-6,0.6-12,0.9-18,0.9
		c-2.1,0-4.2-0.2-6.3-0.6c-0.3-0.1-0.6-0.1-0.9-0.2l-0.4-0.2c-0.4-0.1-0.1,0-0.1,0c-0.2-0.2,0.4,0.3,0.2,0.1s0.8,0.9,0.7,0.7
		c0.4,0.4,0.7,0.9,0.9,1.4l0,0c0-0.1,0-0.2,0-0.3l-0.1-0.9c-0.3-5.5,2-10.5,4.4-15.3C178.2,414.6,179.4,412.3,180.6,410.1
		c0.7-1.2-2.9-4.2-3.2-3.8c-3.6,6.4-16.1,27-1.5,29.5c5.4,0.9,11.2,0.5,16.7,0.1c6.3-0.4,12.6-1.1,18.9-1.9c2-0.3,3.9-0.5,5.9-0.9
		c1.1-0.2,1.9-0.2,2.2-1.4c0.4-1.7,0.5-3.5,0.2-5.3c-0.2-2.8-0.6-5.6-1.1-8.3c-1.1-6.5-2.8-12.9-5.2-19c-1-2.7-2.4-5.3-4-7.7
		c-1.4-2-3.3-4.3-5.6-5.3s-4.8-0.1-6.8,0.9c-2.9,1.6-5.5,3.5-7.8,5.8c-4.2,3.9-8,8.1-11.5,12.7l-0.6,0.8
		C176.7,407.2,180.2,410.6,180.6,410.1z"></path><path class="st1" d="M313.3,407.1c0,0-16.2-22.1-25.3-20.5s-16.7,42.1-13,43.1s45.9,6.5,46.4,1.1S321.4,421.6,313.3,407.1z"></path><path class="st0" d="M315.1,405.8c-2.6-3.5-5.3-6.8-8.3-9.9c-2.4-2.6-5.1-5.1-7.9-7.3c-2.5-2.1-5.4-3.5-8.5-4.2
		c-5.5-1-8.6,3.6-10.8,7.9c-2.7,5.7-4.7,11.8-5.9,18c-1.1,5.2-2.4,10.9-2,16.4c0.1,2,0.5,4.2,2.5,5.1c1.4,0.5,2.8,0.8,4.3,0.9
		c5.6,0.9,11.2,1.5,16.9,2c6.4,0.7,12.8,0.9,19.1,0.8c2.2,0,4.3-0.4,6.4-1c1.9-0.5,3.1-2.3,3-4.2c0.4-6-2-11.5-4.6-16.7
		c-1.2-2.4-2.5-4.8-3.8-7.2c-0.6-1.2-2-1.8-3.2-1.4c-1.1,0.4-1.6,1.6-1.1,2.7c0,0.1,0.1,0.2,0.1,0.3c2.3,4,4.3,8,6.1,12.2
		c0.1,0.4,0.3,0.7,0.4,1.1l0.2,0.6c0.2,0.7,0.4,1.4,0.6,2c0.1,0.5,0.2,1,0.4,1.5l0.1,0.8c0.1,0.6,0-0.2,0,0.4c0.1,0.9,0.1,1.9,0,2.8
		c0,0.2,0,0.5,0,0.7c0,0.6,0,0.1,0,0c-0.1,0.4,0.3-0.5,0.1-0.2c-0.3,0.5,0.4-0.4,0.1-0.1c-0.1,0.1-0.2,0.2-0.3,0.2
		c-0.3,0.1,0.6-0.2,0.1-0.1s-0.7,0.2-1,0.4c-0.1,0-0.8,0.2-0.1,0l-0.5,0.1c-0.5,0.1-1,0.2-1.6,0.2c-5.4,0.4-10.8,0.4-16.1-0.2
		c-5.9-0.4-11.7-1-17.5-1.8c-1.9-0.3-3.8-0.5-5.7-0.9c-0.2,0-1.2-0.4-1.4-0.3c0.2-0.1,1,0.4,0.9,0.4c0.3,0.2,0.5,0.4,0.6,0.7
		c-0.3-0.5,0,0.6-0.1-0.2c0-0.3-0.1-0.6-0.2-0.9c0.1,0.5,0,0.3,0,0s0-0.5,0-0.7c0-1,0-2,0.1-3.1c0.2-2.5,0.6-5.4,1-7.5
		c1-6.1,2.7-12.1,4.9-17.8c0.5-1.3,1-2.5,1.6-3.7l0.2-0.4l0,0c0.1-0.3,0.3-0.5,0.4-0.8c0.3-0.5,0.6-1,0.9-1.5s0.6-0.9,0.9-1.2
		l0.4-0.5c0.4-0.5-0.2,0.1,0.2-0.2l1-0.8c0.5-0.4-0.3,0.1,0.1-0.1c0.2-0.1,0.4-0.1,0.5-0.2c0.3-0.1-0.5,0,0.1,0h0.7
		c-0.6,0,0.2,0,0.4,0.1c0.3,0,0.7,0.1,1,0.2c-0.5-0.1,0.2,0.1,0.4,0.1s0.6,0.2,0.9,0.4l0.9,0.4l0.4,0.2c-0.5-0.3,0.2,0.1,0.2,0.1
		c2.5,1.6,4.9,3.5,7,5.6c3.7,3.7,7.2,7.6,10.3,11.8l0.5,0.7c0.8,1,2.3,1.3,3.4,0.6C315.8,408.2,316,406.8,315.1,405.8
		C315.1,405.8,315.1,405.8,315.1,405.8z"></path><path class="st2" d="M224.7,344.7c-2.8-6.1-5.9-12.1-9.3-17.9c-0.6-1.2-1.9-1.8-3.2-1.5c-1.1,0.3-1.7,1.4-1.4,2.5
		c0,0.1,0.1,0.2,0.1,0.3c3.3,5.8,6.4,11.8,9.3,17.9c0.6,1.2,1.9,1.8,3.2,1.5c1.1-0.3,1.7-1.4,1.4-2.5
		C224.7,344.9,224.7,344.8,224.7,344.7z"></path><path class="st2" d="M246.3,346.3V329c0-1.1-0.9-2-2-2c-0.1,0-0.1,0-0.2,0c-1,0-2.7,0.7-2.7,2v17.3c0,1.1,0.9,2,2,2
		c0.1,0,0.1,0,0.2,0C244.5,348.3,246.3,347.6,246.3,346.3L246.3,346.3z"></path><path class="st2" d="M268.5,346.1c2.2-4.2,4.2-8.5,6.2-12.8c0.4-1.3-0.3-2.7-1.6-3.2c-1.1-0.4-2.3,0-2.9,1c-2,4.3-4.1,8.6-6.2,12.8
		C262.7,346.5,267.2,348.7,268.5,346.1z"></path><path class="st1" d="M315.8,423.2c0,0,20.3-24.6,15.3-29.4s-21.2,12.4-21.2,12.4"></path><path class="st0" d="M317.8,423.4c5.4-6.5,10.7-13.6,14.4-21.3c1.4-2.8,3.9-8.4,0-10.2c-2.2-1-4.9-0.3-7,0.6
		c-2.7,1.2-5.2,2.7-7.4,4.6c-3.5,2.7-6.8,5.7-9.9,9c-0.7,0.8-0.1,1.6,0.8,1.8c1.2,0.1,2.4-0.5,3.2-1.4c-0.7,0.7,0,0,0.3-0.3
		c0.5-0.5,1-1,1.6-1.6c1.7-1.6,3.4-3.2,5.1-4.6c1.8-1.6,3.8-3,5.9-4.2l0.4-0.2c-0.4,0.2-0.1,0,0,0c0.3-0.1,0.5-0.2,0.8-0.4l0.7-0.3
		c0.3-0.1-0.4,0.1-0.1,0l0.4-0.1c0.2,0,0.9-0.2,0.3-0.1l0.6-0.1h0.1c0.5,0.1-0.1-0.1,0.3,0c0.5,0.1,0.9,0.5,1.1,0.9
		c0.2,0.5,0.3,1.1,0.2,1.7c-0.3,1.8-0.9,3.6-1.8,5.3c-2.3,4.5-4.9,8.7-8,12.7c-1.9,2.7-3.9,5.3-6,7.9c-0.7,0.8-0.2,1.6,0.8,1.8
		C315.9,424.8,317.1,424.3,317.8,423.4L317.8,423.4z"></path><polygon class="st2" points="183.3,362.3 305.8,360.7 291.7,433 198.4,434.6 	"></polygon><path class="st2" d="M184.5,364.4l12.2-0.2l29.2-0.4l35.4-0.5l30.6-0.4l10-0.1c1.6,0,3.2,0.1,4.8-0.1h0.3l-2.8-3.9l-4.8,24.5
		l-7.5,38.8l-1.7,8.9l0.4-0.3l-9.3,0.2l-22.3,0.4l-27,0.5l-23.2,0.4l-7.7,0.1c-1.2,0-2.4,0-3.6,0.1h-0.2l2.8,3.1l-5.1-24.5
		l-8.1-38.9l-1.9-8.9c-0.3-1.2-1-2.2-2.1-2.9c-0.8-0.5-1.4-0.1-1.2,0.8l5.1,24.5l8.2,38.9l1.9,8.9c0.2,1.1,1.5,3.1,2.8,3.1l9.3-0.2
		l22.2-0.4l27-0.5l23.2-0.4l7.7-0.1c1.2,0.1,2.4,0.1,3.6-0.1h0.2c0.2,0,0.4-0.1,0.4-0.3l4.8-24.5l7.5-38.8l1.7-8.9
		c0.2-1.3-1.3-3.9-2.8-3.9l-12.2,0.2l-29.2,0.4l-35.4,0.5l-30.6,0.4l-10.1,0.1c-1.6,0-3.2-0.1-4.8,0.1h-0.2
		C180.8,360.2,183,364.4,184.5,364.4z"></path><path class="st1" d="M242.4,393.5c0.2-0.1,0.5-0.1-0.2,0.1l0.5-0.2c0.6-0.2,1.1-0.3,1.7-0.4c0.4-0.1,0.7-0.1,1.1-0.2l0.6,0
		c0.2,0-0.1,0.1-0.2,0c0.1,0,0.3,0,0.4,0c0.4,0,0.8,0,1.2,0.1h0.3c0.3,0-0.2,0-0.3,0c0.2,0.1,0.5,0.2,0.7,0.2l0.3,0.1
		c0.4,0.1-0.6-0.3-0.2-0.1c0.2,0.1,0.4,0.2,0.6,0.3c-0.6-0.2-0.4-0.3-0.2-0.1l0.2,0.1c0.1,0.1,0.2,0.2,0.2,0.2
		c-0.4-0.3-0.4-0.4-0.2-0.2l0.2,0.2l0.2,0.3c0.3,0.4-0.3-0.5-0.1-0.1c0.1,0.2,0.2,0.5,0.4,0.7c-0.2-0.2-0.1-0.4-0.1-0.2
		s0.1,0.3,0.1,0.4c0.1,0.4,0.2,0.7,0.3,1.1c-0.1-0.5,0,0,0,0.1s0,0.3,0,0.4c0,0.3,0,0.6,0,0.9c0,0.1-0.1,0.3,0-0.1
		c0,0.1,0,0.3-0.1,0.4c-0.1,0.3-0.2,0.6-0.3,0.9l-0.1,0.4c-0.2,0.4,0.2-0.3,0,0c-0.1,0.2-0.2,0.4-0.4,0.5c-0.1,0.2-0.3,0.4-0.5,0.6
		l-0.3,0.3c-0.1,0.1-0.1,0.1,0.1,0l-0.2,0.2c-0.5,0.3-1,0.6-1.5,0.8c-0.4,0.2,0.4-0.1,0,0l-0.5,0.1c-0.3,0.1-0.7,0.1-1,0.2
		c-0.1,0-0.3,0-0.4,0c0.4,0.1,0.1,0-0.1,0c-0.3,0-0.7,0-1-0.1l-0.4-0.1h0.1l-0.3-0.1c-0.4-0.1-0.7-0.2-1.1-0.3
		c-0.9-0.3-2.2,0.1-2.2,1.2c0.2,1.2,1.1,2.3,2.3,2.6c2.8,1.1,6,1,8.7-0.4c2.4-1.3,3.8-3.9,3.7-6.6c-0.1-3.2-1.8-6.1-4.6-7.8
		c-2-1.1-4.4-1.5-6.7-1.1c-1.3,0.2-2.6,0.5-3.8,1c-0.4,0.2-0.7,0.7-0.6,1.2c0.1,0.6,0.3,1.1,0.7,1.5
		C240.1,393.4,241.3,393.8,242.4,393.5L242.4,393.5z"></path><path class="st1" d="M175.2,426.3c0,0-17.7-24.1-12.2-29.3s19.8,11.6,19.8,11.6"></path><path class="st0" d="M176.8,425.8c-4.4-5.8-8.1-12-11.1-18.6c-0.2-0.5-0.4-1-0.6-1.5c-0.2-0.6-0.3-0.7-0.4-1.2
		c-0.3-0.9-0.5-1.8-0.6-2.7c-0.1-0.4,0-0.1,0,0c0-0.1,0-0.2,0-0.3s0-0.4,0-0.5s0-0.4,0-0.5c0-0.4,0,0,0.1-0.2
		c0.2-0.8,0.2-0.9,0.8-1.3c1-0.9,2.7-0.5,3.7,0c2,0.9,3.8,2.1,5.5,3.6l0.8,0.6l0.4,0.3c0.3,0.3-0.4-0.4,0.1,0.1s0.9,0.9,1.4,1.3
		c0.9,0.8,1.7,1.6,2.5,2.5s1.6,1.7,2.4,2.6c0.6,0.7,2,1.5,2.8,0.8s-0.1-2.2-0.6-2.9c-2.3-2.7-4.8-5.1-7.5-7.4
		c-2-1.8-4.2-3.4-6.6-4.7c-2-1-4.3-1.9-6.6-1.3c-4.3,1.1-3.5,6.4-2.5,9.6c1.8,5.1,4.2,9.9,7.2,14.4c1.8,2.9,3.7,5.8,5.7,8.6
		c0.6,0.8,1.8,1.9,2.9,1.5S177.3,426.5,176.8,425.8L176.8,425.8z"></path><path class="st0" d="M281.5,265.5c0,0,21.3,3,24.3-5.7s-10.5-6-10.5-6s14.8-18.4-6.9-20.4c0,0,17.2-14.2,2.4-25.9
		s-42.4-2.1-42.4-2.1s-0.2-19.1-22-15.5s-15.8,14.8-15.8,14.8s-13.9,2.1-14,8.7s10.6,8.6,10.6,8.6s4.9,18.6,23.9,14.8l19.6,22.6
		c0,0-6.1,8.9,1.5,17.4S283.1,277.6,281.5,265.5z"></path><path class="st0" d="M282.3,266.9c6,0.8,12.6,1.1,18.4-0.5c3.3-0.9,6.8-2.7,7.6-6.3c0.6-1.7,0.2-3.6-1-5c-1.5-1.5-3.4-2.5-5.5-2.9
		c-2.7-0.5-5.5-0.5-8.2,0.1l4,2.5c4.1-5.2,7.7-13.7,1.5-18.8c-3.4-2.8-7.8-3.7-12-4.1l3.3,2.8c2.6-2.2,4.8-4.8,6.4-7.8
		c1.4-2.3,2.1-5,2.2-7.7c0-3.2-1.2-6.3-3.3-8.8c-4.6-5.7-12-8.7-19.1-9.7c-6.4-0.8-13-0.6-19.3,0.6c-3.6,0.6-7.1,1.5-10.6,2.6l4,2.2
		c-0.3-6.8-4.2-12.9-10.2-15.9c-6.4-3.3-14.1-2.6-20.8-0.7c-4.5,1.2-10.1,3.5-11.8,8.3c-0.7,2.1-0.6,4.4,0.4,6.4l0.5-1
		c-4.1,0.6-8.8,1.9-12,4.6c-2.2,1.6-3.1,4.5-2.2,7.1c1.1,3,4.1,5,6.8,6.3c2,1,4.2,1.7,6.4,2.2l-3-2.2c2.2,7.9,8.2,14.1,16,16.5
		c3.9,1.1,7.9,1.2,11.9,0.4l-3.6-1.5l17.2,19.7l2.5,2.9l-0.3-1c-5,7.4-1.6,18,6.4,21.8c7.5,3.5,17.4,1.6,23.8-3.4
		c3.2-2.5,5.6-6.2,5.1-10.5c-0.2-1.6-4.8-3.1-4.6-1.5c0.9,7.1-6.7,11.7-12.6,13.3c-1.7,0.5-3.5,0.8-5.2,0.8c-0.8,0-1.6,0-2.5-0.1
		c-0.3,0-0.7-0.1-1-0.2c-0.3-0.1-0.6-0.1-0.9-0.2l-0.6-0.2c-0.7-0.2,0.3,0.1-0.1,0l-0.5-0.2c-0.6-0.3,0.3,0.2-0.1,0
		c-0.5-0.3-0.9-0.6-1.3-1c-1.9-2-3.1-4.5-3.4-7.2c-0.4-3.2,0.4-6.5,2.2-9.2c0.2-0.3-0.2-0.8-0.3-1L236.6,241l-3.1-3.5
		c-0.3-0.4-0.6-0.7-1-1c-2.1-1.5-4.3-0.6-6.6-0.5c-1.5,0.1-3,0-4.4-0.3c-1.2-0.2-2.3-0.6-3.3-1.2c0.4,0.2-0.4-0.2-0.4-0.3l-0.7-0.4
		c-0.4-0.3-0.8-0.6-1.2-0.9c-0.8-0.7-1.6-1.5-2.3-2.4c-1.2-1.6-2.3-3.3-3.1-5.2c-0.3-0.6-0.5-1.2-0.7-1.9c-0.1-0.4,0.1,0.2-0.1-0.2
		l-0.1-0.2c-0.3-1.2-1.9-1.9-3-2.2l-0.3-0.1l-0.3-0.1c-0.6-0.1,0.4,0.1-0.1,0l-1.2-0.4l-0.8-0.3c0,0-0.4-0.1-0.1,0l-0.3-0.1
		l-0.8-0.4l-0.5-0.3c-0.4-0.2-0.8-0.5-1.1-0.7c-0.8-0.6-1.4-1.4-1.8-2.4c-1.7-5,5.1-7.7,8.7-8.7c1.5-0.4,2.9-0.8,4.4-1
		c0.4,0,0.6-0.4,0.6-0.7c0-0.1,0-0.2-0.1-0.3c-0.1-0.1-0.1-0.2-0.1-0.3l-0.1-0.4c0.1,0.3,0,0-0.1-0.2c-0.2-1-0.3-2-0.2-2.9
		c0.6-3.9,4.3-6.3,7.7-7.7c3.4-1.4,7-2.3,10.6-2.7c2.6-0.3,5.3,0,7.9,0.8c0.5,0.2,0.1,0.1,0,0l0.4,0.2l0.7,0.3
		c0.3,0.1-0.1,0-0.1-0.1l0.4,0.2c0.2,0.1,0.5,0.3,0.7,0.4s0.1,0.1,0,0l0.3,0.2l0.5,0.4c0.3,0.2,0.5,0.5,0.8,0.8
		c1.1,1.2,2,2.7,2.6,4.2c0.8,1.9,1.3,4,1.3,6.1c0,1.3,2.9,2.6,4,2.2c7.7-2.7,15.8-3.9,24-3.6c5.8,0.2,11.6,1.6,16,5.4
		c2.3,2,3.9,4.7,4.2,7.8c0.2,2.5-0.3,5-1.5,7.3c-1.6,3.2-3.8,6.1-6.6,8.4c-1.5,1.2,2.6,2.7,3.3,2.8c1.6,0.1,3.1,0.4,4.6,0.9
		c0,0,0.5,0.2,0.1,0l0.4,0.1c0.1,0.1,0.8,0.4,0.7,0.3c0.3,0.2,0.6,0.4,0.9,0.6c0.3,0.2,0.5,0.5,0.7,0.8c-0.1-0.2,0.2,0.3,0.2,0.4
		c0.5,0.9,0.8,2,0.8,3c0.1,3.4-1.6,6.7-3.4,9.5c-0.5,0.7-0.9,1.4-1.5,2.1c-0.5,0.6,0.9,1.6,1.2,1.8c0.8,0.6,1.8,0.8,2.8,0.7
		c1.7-0.4,3.4-0.5,5.2-0.3c0.4,0-0.5-0.1,0.1,0l0.5,0.1l0.4,0.1c0.6,0.1-0.5-0.1,0.1,0s-0.2-0.2,0.4,0.1c-0.9-0.5,0.3,0.3-0.4-0.2
		c0.1,0.1,0.4,0.4,0.1,0.1c0.3,0.3,0.1,0,0.3,0.4c0.1,0.2,0.2,0.5,0.2,0.7c0.1,0.9,0,1.7-0.4,2.5c-1,2.9-4,4.2-6.8,4.9
		c-3.3,0.7-6.7,1-10.1,0.9c-1.5,0-3-0.1-4.4-0.3h-0.4c-0.4,0,0.4,0,0.1,0l-0.6-0.1l-0.5-0.1c-0.7-0.1-1.9,0-1.5,1
		S281.3,266.8,282.3,266.9z"></path><path class="st1" d="M206.3,284.8c-12.4-16.1,2.7-59.6,2.7-59.6c15.2,2.8,39.2-12.9,39.2-12.9c-7.1,14.3,6.7,40.1,6.7,40.1
		c6-12.8,19.7-12.5,18.6,0.1s-13.2,13.8-13.2,13.8s5.1,30.4,3.8,35.4s-28.9,20.6-36.8-4C227.3,297.8,217.2,298.8,206.3,284.8z"></path><path class="st0" d="M208.4,286c-4.6-6-5.1-14.3-4.8-21.5c0.4-8.1,1.6-16.1,3.6-24c0.7-3,1.5-6,2.4-9c0.3-1,0.6-2,0.9-3
		c0.1-0.6,0.3-1.1,0.6-1.7c0-0.1,0-0.2,0.1-0.3c0.3,0,0.6,0.1,0.9,0.2c0.6,0.1,1.1,0.1,1.6,0.1c2.1,0.1,4.2-0.1,6.2-0.4
		c4.5-0.8,8.9-2.1,13.1-3.8c6-2.4,11.8-5.4,17.3-8.9l-4.2-2.7c-3,6.1-2.2,13.4-0.8,19.9c1.4,5.8,3.3,11.5,5.9,16.9
		c0.5,1.1,1.1,2.3,1.7,3.4c0.2,0.4,4,2.9,4.2,2.6c2.2-4.6,6.8-10.1,12.6-9.4c0.5,0,0.9,0.2,1.3,0.3c0.1,0,0.1,0.1,0.2,0.1
		s-2-1.5-1.9-1.2s0.4,0.4,0.5,0.6c0.7,1,1.2,2.1,1.4,3.4c0.5,3,0.1,6.2-1.1,9c-1.8,3.9-5.3,6.8-9.5,8c-0.6,0.2-1.1,0.3-1.7,0.4
		c-0.1,0-0.7,0-0.8,0.1s0.3,1.7,0.3,1.9c1.5,9,2.9,18.1,3.5,27.3c0.2,2.4,0.8,5.7-0.9,7.7c-2.1,2.5-5.3,4.2-8.2,5.5
		c-3.9,1.8-8.2,2.7-12.5,2.4c-1.1-0.1-2.1-0.3-3.1-0.5c-0.5-0.1-1-0.3-1.5-0.5l-0.6-0.2c-0.1-0.1-0.5-0.4-0.2-0.1
		c0.5,0.4,0.5,0.4,0,0c-0.5-0.4-0.9-0.9-1.3-1.3c-0.9-1-1.7-2.2-2.3-3.4c-0.8-1.4-1.4-2.9-1.9-4.5c-0.2-0.6-1.4-1.2-2-1.6
		s-1.5-1.2-2.2-1.1c-1.8,0-3.6-0.3-5.4-0.9C214.9,293.9,211.5,290.1,208.4,286c-0.8-0.7-1.7-1.3-2.6-1.8c-0.4-0.3-0.8-0.6-1.3-0.7
		c0,0-0.5-0.2-0.3,0c4.6,6.1,10.6,10.9,17.6,14c2.4,1.1,5,1.7,7.6,1.6l-4.2-2.7c0.9,3,2.4,5.8,4.4,8.2c2.2,2.4,4.9,4.4,7.8,5.9
		c4.3,2.1,9.2,2.7,13.8,1.5c4.2-0.9,8.1-2.7,11.6-5.2c1.2-0.8,2.2-1.8,3-2.9c0.5-1,0.7-2.2,0.6-3.3c-0.1-4.9-0.6-9.9-1.3-14.8
		c-0.7-4.9-1.4-9.8-2.1-14.7l-0.4-2.2c0-0.2-0.3-0.9-0.2-1.2s1.3-0.4,1.7-0.5c4.4-1,8.1-3.9,10.1-8c1.4-3,1.8-6.4,1.2-9.6
		c-0.7-3.1-2.9-4.9-5.5-6.4c-2.2-1.4-4.5-2.1-7.1-1.5c-2.8,0.7-5.2,2.4-7,4.6c-1.2,1.4-2.2,3-2.9,4.7l4.2,2.6c-1.6-3-3-6.2-4.2-9.4
		c-2.4-6.3-4.4-13.1-4.5-19.9c-0.2-3.7,0.5-7.3,2-10.6c0.2-0.4-3.7-3-4.2-2.7c-2.9,1.8-5.9,3.5-8.9,5.1c-6,3.2-12.4,5.7-19.1,7.3
		c-3.6,0.9-7.4,1.1-11.1,0.5h-0.1c-1.7,5.2-3.2,10.4-4.4,15.8c-2.2,9.8-3.9,20.1-2.9,30.2c0.5,4.8,1.7,9.8,4.7,13.7
		c0.7,0.8,1.6,1.4,2.5,1.8c0.4,0.3,0.8,0.6,1.3,0.7C208.1,286.1,208.6,286.3,208.4,286z"></path><path class="st1" d="M226.9,271.9c0,0-25.5,16.5-36.9,4.5s5.1-27.7,25.9-22.9"></path><path class="st0" d="M225.7,270.8c-0.7,0.4-1.4,0.8-2.1,1.2l-1,0.6l-0.6,0.3c0.6-0.3-0.2,0.1-0.4,0.2c-1,0.5-2,1-3,1.5
		c-5,2.3-9.9,4.1-15.3,4.4s-10.6-1.8-13.3-6.8c-2.6-4.8-0.7-9.9,3.2-13.1c2.6-2,5.6-3.4,8.8-4c4.2-0.8,8.6-0.7,12.8,0.3
		c1.3,0.2,2.5-0.4,3.2-1.4c0.4-0.5,0.4-1.3-0.2-1.8c-0.2-0.2-0.5-0.3-0.7-0.3c-8.2-1.8-17.2-1-24.5,3.5c-5.2,3.2-9.8,9-8.5,15.5
		s7.3,10.8,13.6,11.5c6.5,0.8,13.1-1.1,19.1-3.5c3.9-1.6,7.7-3.5,11.3-5.8c0.8-0.5,1.6-1.6,0.8-2.5S226.6,270.3,225.7,270.8
		L225.7,270.8z"></path><path class="st1" d="M249.3,263.1c0,0,1.2,8.3-9,10.3"></path><path class="st0" d="M247.8,262.1c0.3,3.1-1.1,6.2-3.7,8c-1.6,1-3.3,1.7-5.1,2c-0.6,0.1,0.4,1.2,0.6,1.4c0.3,0.3,0.7,0.6,1.2,0.9
		c0.3,0.2,0.6,0.3,0.9,0.3c2.9-0.6,5.9-1.9,7.6-4.4c1-1.5,1.6-3.2,1.6-5c0-0.4,0-0.7,0-1.1c-0.1-0.7-1-1.4-1.6-1.8
		C249.1,262.3,247.7,261.5,247.8,262.1L247.8,262.1z"></path><path class="st0" d="M233.4,243.7c0.3,1.1-0.3,2.3-1.5,2.7c-0.1,0-0.2,0.1-0.3,0.1c-2.4,0.3-2.8-2.6-0.9-3.5c0.8-0.6,2-0.3,2.5,0.5
		C233.4,243.6,233.4,243.6,233.4,243.7z"></path><path class="st0" d="M220.1,244.5c0.3,1.1-0.3,2.3-1.5,2.7c-0.1,0-0.2,0.1-0.3,0.1c-2.4,0.3-2.8-2.6-0.9-3.5c0.8-0.6,2-0.3,2.5,0.5
		C220,244.3,220,244.4,220.1,244.5z"></path><path class="st1" d="M218.1,312.4c0,0-11.9-11.9-6.2-14.7s26.1,4,40.8-4c14.7-8,21-13,22.7-4.5s-1.7,27.2-1.7,27.2"></path><path class="st0" d="M220,311.4c-1.5-1.5-2.9-3.1-4.1-4.8c-0.9-1.2-1.8-2.4-2.4-3.8c-0.1-0.3-0.3-0.6-0.4-1
		c-0.2-0.6,0.1,0.4-0.1-0.2c0-0.1-0.1-0.3-0.1-0.5s-0.1-1-0.1-0.6c0-0.1,0-0.2,0-0.3c0-0.5,0-0.1,0-0.1s0.1-0.2,0.1-0.3
		c0.3-0.4-0.3,0.4,0.1,0c0.1-0.1,0.2-0.1,0.2-0.2c-0.4,0.3,0.1,0,0.1-0.1l0.3-0.1c0.5-0.2-0.4,0.1,0.1,0c0.3-0.1,0.7-0.2,1-0.2
		c0.6-0.1,1.1-0.1,1.7-0.1c0.9,0,1.9,0,2.8,0c4.6,0.2,9.3,0.7,13.9,0.7c5.3,0.2,10.6-0.5,15.6-2c5.6-1.8,10.5-5.1,15.6-7.9
		c1.8-1,3.6-1.9,5.5-2.6l0.7-0.2c0.3-0.1,0.7-0.1,1-0.2s-0.5,0,0,0c0.1,0,0.3,0,0.4,0c0.1,0,0.6,0-0.1,0l0.3,0.1c0.2,0.1,0.2,0,0,0
		s-0.2-0.1,0.1,0.1c-0.7-0.3-0.2-0.1-0.1,0s0.5,0.4-0.1-0.1c0.1,0.1,0.2,0.2,0.3,0.4c-0.3-0.6,0.1,0.3,0.2,0.4
		c0.1,0.3,0.2,0.6,0.3,0.9c0.4,1.7,0.6,3.4,0.6,5.1c0,7.5-0.7,15-2.2,22.3c-0.5,2.5,4.3,3.9,4.8,1.2c1.3-6.9,2.1-13.8,2.2-20.8
		c0-3.6,0.1-8.4-2.4-11.4s-6.7-2.2-10-0.8c-5.2,2.2-10,5.4-15,8s-10.6,3.4-16.1,3.6c-5.1,0.1-10.1-0.4-15.2-0.6
		c-3.1-0.2-7.7-0.7-10.3,1.6c-3.1,2.9-0.2,7.7,1.6,10.4c1.6,2.3,3.3,4.4,5.3,6.4c0.8,1,2.2,1.4,3.4,0.9c0.9-0.5,1.2-1.6,0.7-2.5
		c-0.1-0.1-0.2-0.2-0.3-0.4L220,311.4z"></path><path class="st0" d="M58.7,436h11.7l28.6,0l41.3-0.1l49.9-0.1l54.3-0.1l54.6-0.1l50.8-0.1l42.9-0.1l30.8-0.1c4.9,0,9.7,0.1,14.6,0
		h0.6c2.9,0,3.6-3.8,0.4-3.8h-10l-27.2,0l-40.3,0.1l-49.3,0.1l-54.1,0.1l-54.8,0.1l-51.3,0.1l-43.8,0.1l-32,0.1H60.2h-1.1
		C56.2,432.2,55.4,436.1,58.7,436L58.7,436z"></path></g><g id="screen"><path class="st0" d="M318.8,127.8H372c3,0,5.4,2.4,5.4,5.4v31c0,3-2.4,5.4-5.4,5.4h-53.2c-3,0-5.4-2.4-5.4-5.4v-31
		C313.4,130.2,315.8,127.8,318.8,127.8z"></path><path class="st0" d="M372,170.1h-53.2c-3.2,0-5.9-2.6-5.9-5.9v-31c0-3.2,2.6-5.9,5.9-5.9l0,0H372c3.2,0,5.9,2.6,5.9,5.9v31
		C377.9,167.4,375.2,170.1,372,170.1z M318.8,128.3c-2.7,0-4.9,2.2-4.9,4.9v31c0,2.7,2.2,4.9,4.9,4.9H372c2.7,0,4.9-2.2,4.9-4.9v-31
		c0-2.7-2.2-4.9-4.9-4.9H318.8z"></path><path class="st1" d="M327.3,140.9c-2.4,2.2-4.7,4.5-6.9,6.8c-0.9,0.9,0,2.4,0.9,2.9l10.2,6.3c1,0.6,2.6,0.7,3.4-0.4
		c0.6-0.9,0.3-2.2-0.6-2.8c-0.1,0-0.2-0.1-0.2-0.1l-10.2-6.3l0.9,2.9c2-2.1,4.1-4.1,6.1-6c0.4-0.3,0.7-0.8,0.7-1.4
		c0-0.6-0.3-1.1-0.7-1.5C329.9,140.6,328.2,140,327.3,140.9L327.3,140.9z"></path><path class="st1" d="M347,137.6c-1.4,7.8-3.2,15.6-5.4,23.2c-0.3,1.1,1.7,0.9,2.2,0.8c1.1-0.2,2.1-0.9,2.6-1.9
		c2.3-7.6,4.1-15.4,5.5-23.2C352.1,134.8,347.3,136,347,137.6L347,137.6z"></path><path class="st1" d="M358.1,143.3c1.4,0.9,2.8,1.9,4.1,2.9c0.7,0.5,1.3,1,2,1.5l1,0.8c0.4,0.3,0-0.1,0.1,0.1l0.1,0.1
		c0.1,0.1,0.1,0.1-0.1-0.1c-0.1-0.2-0.1-0.5,0-0.8c0-0.1,0.4-0.4,0.1-0.1l-1.1,0.8l-2,1.5l-4.4,3.3c-0.9,0.7-1.1,1.9-0.4,2.8
		c0.1,0.1,0.1,0.1,0.2,0.2c0.9,1,2.3,1.2,3.5,0.6l5-3.8c0.8-0.6,1.7-1.2,2.5-1.9c1.1-0.7,1.7-1.9,1.5-3.2c-0.4-1.1-1.1-2.1-2.1-2.8
		c-0.7-0.6-1.5-1.2-2.3-1.8c-1.6-1.2-3.2-2.4-4.9-3.5c-1-0.6-2.6-0.8-3.4,0.2C356.9,141.3,357.1,142.6,358.1,143.3
		C358.1,143.3,358.2,143.3,358.1,143.3L358.1,143.3z"></path><path class="st2" d="M58.7,83.2h115c5.7,0,10.3,4.6,10.3,10.3v81.4c0,5.7-4.6,10.3-10.3,10.3h-115c-5.7,0-10.3-4.6-10.3-10.3V93.5
		C48.4,87.8,53,83.2,58.7,83.2z"></path><path class="st2" d="M172,183.9H57c-2,0-3.1-0.3-4.3-1.8c-1.4-1.8-2.1-3.9-2.1-6.2c-0.1-5.1,0-10.1,0-15.1V96.5
		c0-2.6,0.1-5.1,1.6-7.4c2-3,5.4-4.8,9-4.7h114.2c2.2,0,3.3,0.4,4.6,2.2c1.6,2.3,1.8,4.9,1.8,7.5v64.2c0,5,0,10.1,0,15.1
		c0,5.7-4.5,10.3-10.1,10.4c-0.7,0,1.1,1.4,1.2,1.4c0.8,0.6,1.9,1,2.9,1.1c5.8-0.1,10.4-4.8,10.5-10.6c0-1.7,0-3.4,0-5.1V94.7
		c0-3-1.3-5.9-3.4-8c-3.1-3-7.2-4.7-11.5-4.8H57.6c-3.9,0-7.5,1.4-9.7,4.7c-1.6,2.4-1.7,4.9-1.7,7.6v75.4c0,1.3,0,2.7,0,4
		c0.1,7.2,7.4,12.7,14.3,12.8c3.4,0,6.8,0,10.1,0h104.9c1,0-0.1-0.9-0.4-1.1C174.2,184.6,173.1,184.1,172,183.9z"></path><path class="st0" d="M169.1,91.7c0,0,3.4,0.8,2.3,4s-5,1.8-4.9-1.2c-0.2-1.4,0.9-2.7,2.3-2.8C168.8,91.7,169,91.7,169.1,91.7z"></path><path class="st0" d="M170.2,93.8c0.2,0.1,0.5,0.1,0.7,0.3l-0.3-0.1c0.2,0.1,0.4,0.2,0.5,0.3l0.1,0.1h0.1c0.1,0.1-0.2-0.2-0.2-0.2
		c0,0,0.1,0.1,0.1,0.1l0.1,0.1c0.1,0.1,0.2,0.3-0.3-0.3l0.1,0.1c0,0-0.5-0.6-0.3-0.3c0.1,0.1,0.2,0.2-0.1-0.2s-0.2-0.3-0.1-0.2
		s-0.4-0.7-0.3-0.4s-0.3-0.7-0.2-0.3s-0.2-0.5-0.1-0.3v0.1v0.1c0.1,0.2-0.1-0.4-0.1-0.2s0,0.3,0.1,0.4v-0.3c0,0.7-0.2,1.3-0.5,1.9
		l0.1-0.2c-0.4,0.7-1,1.1-1.8,1.2h0.2c-0.4,0-0.9,0-1.3-0.2l0.3,0.1l-0.3-0.2l-0.1-0.1c-0.2-0.1,0.3,0.3,0.2,0.1l-0.1-0.1
		c-0.2-0.2,0.4,0.4,0.2,0.2s0.4,0.5,0.2,0.3s0.4,0.7,0.2,0.4s0.4,0.7,0.2,0.4s0.3,0.6,0.2,0.3s-0.1-0.4,0.1,0.3l-0.1-0.2
		c-0.1-0.2,0.1,0.4,0,0.2v-0.2c0-0.1,0-0.3,0-0.4v0.3c0-0.6,0.1-1.2,0.4-1.8l-0.1,0.2c0.4-0.7,1.1-1.1,1.9-1.2h-0.2
		C170,93.8,170.1,93.8,170.2,93.8c0.8,0-0.2-1.7-0.3-2c-0.3-0.6-0.7-1.1-1.1-1.6l-0.4-0.4c-0.2-0.2-0.4-0.3-0.6-0.4
		c-0.9-0.1-1.7,0.3-2.3,0.9c-0.6,0.8-0.8,1.7-0.7,2.7c0.1,0.6,0.2,1.3,0.5,1.9c0.5,1,1.1,2,1.8,2.9c0.6,0.8,1.5,1.4,2.5,1.7
		c0.7,0.1,1.4,0,2-0.4c0.7-0.6,1.1-1.4,1.2-2.3c0.1-1.5-0.4-2.9-1.3-4.1c-0.8-1.5-2.2-2.7-3.8-3.2c-0.3-0.1-0.3,0.3-0.3,0.5
		c0.1,0.5,0.3,1,0.6,1.4c0.3,0.6,0.7,1.1,1.1,1.6C169.5,93.4,169.9,93.7,170.2,93.8z"></path><rect class="st1" x="63.3" y="112.1" width="4" height="3.2"></rect><rect class="st1" x="77.2" y="112.1" width="33.2" height="3.2"></rect><rect class="st0" x="120.3" y="111.8" width="10.3" height="3.2"></rect><rect class="st1" x="138.5" y="111.9" transform="matrix(0.9998 -1.902294e-02 1.902294e-02 0.9998 -2.1328 2.8268)" width="18.1" height="3.2"></rect><rect class="st1" x="63.4" y="121.3" width="4" height="3.2"></rect><rect class="st0" x="77.3" y="121.3" width="20.8" height="3.2"></rect><rect class="st1" x="104.3" y="120.9" width="6.4" height="3.2"></rect><rect class="st1" x="115.6" y="121.1" transform="matrix(0.9999 -1.657987e-02 1.657987e-02 0.9999 -2.0161 2.1411)" width="25" height="3.2"></rect><rect class="st1" x="63.4" y="131.2" width="4" height="3.2"></rect><rect class="st1" x="77.3" y="131.1" width="22.3" height="3.2"></rect><rect class="st0" x="106.2" y="130.8" width="6.9" height="3.2"></rect><rect class="st1" x="118.8" y="130.8" transform="matrix(0.9996 -2.998651e-02 2.998651e-02 0.9996 -3.9125 3.8041)" width="12.2" height="3.2"></rect><rect class="st1" x="63.4" y="140.4" width="4" height="3.2"></rect><rect class="st0" x="77.3" y="140.3" width="25.8" height="3.2"></rect><rect class="st1" x="110.8" y="140" width="8" height="3.2"></rect><rect class="st1" x="101.3" y="159.2" width="4" height="3.2"></rect><rect class="st0" x="115.2" y="159.2" width="22.3" height="3.2"></rect><rect class="st1" x="144.2" y="158.9" width="6.9" height="3.2"></rect><rect class="st1" x="156.7" y="158.7" transform="matrix(0.9996 -2.998651e-02 2.998651e-02 0.9996 -4.734 4.9553)" width="12.2" height="3.2"></rect><rect class="st1" x="101.3" y="168.4" width="4" height="3.2"></rect><rect class="st1" x="115.2" y="168.4" width="25.8" height="3.2"></rect><rect class="st0" x="148.7" y="168" width="8" height="3.2"></rect><path class="st2" d="M380.5,271.7c0,0,56.7,0.4,62.4-0.8s12.4-10.8,6.1-22s-15.9-8-15.9-8s0.8-15.7-19-14.9s-19,18.8-19,18.8
		s-14.9,0.6-13,12.2c0,0-6.9-2.4-10.6,6.1C367.8,271.7,380.5,271.7,380.5,271.7z"></path><path class="st2" d="M380.6,273.3c4.1,0,8.2,0,12.3,0c8.5,0,17,0,25.5,0c7.1-0.1,14.2-0.1,21.3-0.5c2.8-0.2,5.4-0.5,7.8-2.1
		c4.7-3.1,7-9.1,6.4-14.6c-0.7-6.2-4.6-12.7-10.3-15.5c-3.4-1.7-7.2-2.1-10.9-1.3c-0.4,0.1-0.7,0.2-1.1,0.3l3.8,1.1
		c0.3-7-4.7-12.9-11.1-15.1c-3.4-1.1-7.1-1.5-10.7-1.2c-3.5,0.1-6.9,0.9-10.1,2.3c-4.5,2-7.9,5.8-9.7,10.4c-1,2.5-1.4,5.1-1.4,7.8
		l2.4-1.7c-3,0.1-5.9,0.9-8.6,2.1c-4.8,2.3-7.6,6.4-6.8,11.8l3.7-1.6c-4.9-1.7-10.4,0.7-13,5c-1.5,2.4-2.9,5.7-1.1,8.4
		c1.3,2,3.8,3.1,6.1,3.7C377,273.1,378.8,273.3,380.6,273.3c0.9,0,2.5-0.5,2.4-1.7s-1.7-1.4-2.6-1.4c-0.3,0-0.1-0.2,0.4,0
		c-0.2,0-0.4,0-0.6,0c-0.7,0-1.3-0.1-2-0.2l-0.4-0.1l-0.4-0.1c-0.5-0.1-0.9-0.3-1.4-0.4s0.1,0-0.3-0.1l-0.5-0.2
		c-0.3-0.1-0.6-0.3-0.9-0.6c-0.5-0.4-0.9-1.1-1-1.7c-0.1-1.1,0-2.1,0.5-3.1c0.6-1.5,1.5-2.9,2.7-4c0.3-0.3,0.7-0.5,1.1-0.8l0.6-0.3
		l0.3-0.1c0.3-0.1-0.3,0.1,0.1,0c0.2,0,0.9-0.2,0.3-0.1c0.2,0,0.5,0,0.7,0h0.3c0.3,0-0.6-0.1-0.1,0c0.2,0,0.3,0,0.5,0
		s0.3,0.1,0.5,0.1s-0.6-0.2-0.1,0l0.3,0.1c1,0.3,3.9,0.1,3.7-1.5c-0.4-2.1-0.1-4.3,1-6.1c0.5-0.7,1.1-1.3,1.8-1.8
		c0.6-0.5,1.3-0.9,2.1-1.2c0.4-0.2,0.9-0.4,1.3-0.5c0.1,0,0.7-0.2,0.1-0.1l0.5-0.1c0.7-0.2,1.5-0.4,2.3-0.5c0.4-0.1,1-0.1,0.2,0
		l0.7-0.1h0.6c0.9,0,2.5-0.5,2.4-1.7c0-0.5,0-1.1,0-1.6c0.1-1.2,0.3-2.5,0.7-3.7c0.9-3.7,3.1-6.9,6.2-9.1c4.3-2.9,10.9-3.5,16-2.2
		c3.9,0.8,7.1,3.4,8.8,7c0.6,1.3,1,2.6,1.1,4c0.1,0.7,0.1,1.3,0.1,2c-0.1,1.7,2.9,1.4,3.8,1.1c-1.1,0.4-0.3,0.1,0,0s0.4-0.1,0.6-0.1
		s0.6,0-0.1,0c0.2,0,0.4-0.1,0.6-0.1h0.8c0.1,0,0.7,0,0.1,0h0.6c0.4,0,0.8,0.1,1.2,0.2c-0.5-0.1,0.2,0.1,0.3,0.1
		c0.3,0.1,0.6,0.2,0.9,0.3c5,1.7,8.7,7.8,9.5,13c0.8,4.9-0.8,10.5-5.2,13.2c-0.5,0.3-1.1,0.5-1.6,0.7c-0.8,0.2,0.7,0-0.3,0
		s-1.8,0.1-2.8,0.2c-14.9,0.8-29.9,0.5-44.8,0.5c-4.6,0-9.2,0-13.9-0.1c-0.9,0-2.5,0.6-2.4,1.7S379.7,273.2,380.6,273.3z"></path><path class="st2" d="M425.6,245.8c0,0,4.2-8.8,16.2-3.9"></path><path class="st2" d="M427.7,246c0.1-0.3,0.3-0.5,0.5-0.8l0.2-0.4c0.1-0.1-0.4,0.5-0.1,0.2l0.2-0.2c0.3-0.3,0.6-0.6,0.9-0.9
		s-0.4,0.4-0.1,0.1l0.3-0.2c0.2-0.2,0.4-0.3,0.6-0.5c0.4-0.3,0.2,0-0.1,0c0.1-0.1,0.2-0.1,0.3-0.2c0.3-0.1,0.5-0.3,0.8-0.4
		s-0.5,0.2-0.1,0c0.1,0,0.3-0.1,0.4-0.1l0.4-0.1c0.5-0.2-0.3,0.1,0.1,0s0.7-0.1,1.1-0.2h0.5c0.2,0-0.1,0-0.1,0h0.4
		c2.2,0.1,4.3,0.5,6.2,1.4c1.1,0.4,2.6-0.3,3.3-1.1s0.9-1.8-0.2-2.3c-3.9-1.6-8.2-2.2-12.3-0.8c-2.7,1-5.1,2.7-6.8,5.1
		c-0.3,0.4-0.5,0.7-0.7,1.1c-0.5,1-0.1,1.8,1,1.9C425.8,247.7,427,247.1,427.7,246L427.7,246z"></path><rect class="st1" x="395.7" y="248.2" width="23.6" height="2.3"></rect><rect class="st0" x="395.8" y="254.8" width="14.8" height="2.3"></rect><rect class="st1" x="415" y="254.6" width="4.6" height="2.3"></rect><rect class="st1" x="423.1" y="254.7" transform="matrix(0.9999 -1.657987e-02 1.657987e-02 0.9999 -4.1816 7.1978)" width="17.8" height="2.3"></rect><rect class="st1" x="395.8" y="261.8" width="15.9" height="2.3"></rect><rect class="st0" x="416.4" y="261.6" width="4.9" height="2.3"></rect><rect class="st1" x="425.1" y="261.7" transform="matrix(0.9996 -2.792164e-02 2.792164e-02 0.9996 -7.1702 12.0944)" width="8.7" height="2.3"></rect><path class="st2" d="M214.8,100.1C226.2,84.3,243,73.2,262,68.8c19.2-4.4,41.8-1.9,57.4,10.9c9.2,7.5,15.5,19.4,14.1,31.5
		c-0.2,2.1,4.7,1.7,4.9,0c1.2-11.3-3.6-22.6-11.6-30.5c-8.3-8.1-19.2-12.8-30.4-15.1c-20.4-4.2-42.4,0-60.3,10.5
		c-10.1,5.9-18.8,13.8-25.6,23.3C209,101.4,213.8,101.5,214.8,100.1L214.8,100.1z"></path><path class="st2" d="M397.5,165c3.9-1,8.7-0.3,11.6,2.7s3.3,7.9,2.2,11.8c-0.5,2.1-1.7,4-3.4,5.5c-0.8,0.7-1.8,1.1-2.9,1.1
		c-0.5-0.1-0.7-0.4-0.4,0.1c0.6,0.9,0.2-0.1,0.4-0.6c0.7-1.5,2.4-2.2,4-1.7c0.5,0.4,0.9,0.9,1.1,1.5c0.5,1.1,1,2.3,1.4,3.5
		c2,5.9,2.8,12.2,2.2,18.5c-0.1,1,1,2.1,1.7,2.7c0.3,0.2,2,1.3,2.1,0.3c0.7-7.5-0.4-15-3.2-22c-1.3-3.2-3.4-6.4-6.7-7.9
		c-2.1-0.9-5.1-0.6-6.2,1.6c-1.5,3,2.1,6.4,4.6,7.4c2.9,1.1,5.6-0.4,7.2-2.8c3.6-5.1,3.1-12.2-0.3-17.4c-3.9-5.9-11.4-9.7-18.5-7.9
		C393.1,161.6,396.1,165.4,397.5,165L397.5,165z"></path></g></svg>